# xmcd
#
# Track frame offsets:
#	150
#	13405
#	26721
#	38868
#	49925
#	62832
#	77119
#	91449
#	104031
#	117362
#	130526
#	144375
#	159887
#	172433
#	187659
#	199833
#	216149
#	228147
#	241623
#	254432
#
# Disc length: 3562 seconds
#
# Revision: 0
# Processed by: cddbd v1.5.2PL0 Copyright (c) Steve Scherf et al.
# Submitted via: EasyCDDAExtractor 15.3.0.1
#
DISCID=160de814
DTITLE=Various Artist - Memories Of Renfro Valley
DYEAR=1900
DGENRE=Country
TTITLE0=Karl and Harty - I Didn't Hear Anyone Pray
TTITLE1=Parker Linda - Lonesome Valley Sally
TTITLE2=Cumberland Ridge Runners - Goofus
TTITLE3=Coon Creek Girls and Aunt Idy Harper - Old Apply Tree
TTITLE4=Hopkins Doc - Wreck Of The Old 31
TTITLE5=Parker Linda - My Ozark Mountain Home
TTITLE6=Foley Red - Echoes Of My Old Plantation Home
TTITLE7=Coon Creek Girls and Aunt Idy Harper - Lulu Walls
TTITLE8=Parker Linda - Take Me Back To Renfro Valley
TTITLE9=Karl and Harty - Little Sweetheart I'm In Prison
TTITLE10=Josie and Cumberland Ridge Runners - Old Maid
TTITLE11=Foley Red and Lulubelle - Going Out West This Fall
TTITLE12=Foley Red - Just One Little Kiss
TTITLE13=Davis Karl - My Blue Eyed Boy
TTITLE14=Coon Creek Girls and Aunt Idy Haper - Poor Naomi Wise
TTITLE15=Cross Hugh - No Business Of Mine
TTITLE16=Hopkins Doc - Wreck Between New Hope and Gethsemane
TTITLE17=Cumberland Ridge Runners - Rounding Up The Yearlings
TTITLE18=Parker Linda - I'll Be All Smiles Tonight
TTITLE19=Ledford Lily May and Coon Creek Girls - Pretty Polly
EXTD=
EXTT0=
EXTT1=
EXTT2=
EXTT3=
EXTT4=
EXTT5=
EXTT6=
EXTT7=
EXTT8=
EXTT9=
EXTT10=
EXTT11=
EXTT12=
EXTT13=
EXTT14=
EXTT15=
EXTT16=
EXTT17=
EXTT18=
EXTT19=
PLAYORDER=
